HIERARCHY
ROOT Hips
{
  OFFSET 44.9239 85.3979 -0.247902
  CHANNELS 6 Xposition Yposition Zposition Zrotation Xrotation Yrotation
  JOINT spine
  {
    OFFSET 0 6.3926 0.367606
    CHANNELS 3 Zrotation Xrotation Yrotation
    JOINT spine1
    {
      OFFSET 0 9.17611 0
      CHANNELS 3 Zrotation Xrotation Yrotation
      JOINT spine2
      {
        OFFSET 0 8.79238 0
        CHANNELS 3 Zrotation Xrotation Yrotation
        JOINT Neck
        {
          OFFSET 0 22.5737 1.07624
          CHANNELS 3 Zrotation Xrotation Yrotation
          JOINT Head
          {
            OFFSET 0 6.82011 0
            CHANNELS 3 Zrotation Xrotation Yrotation
            End Site
            {
              OFFSET 0 16.5085 -5.44427
            }
          }
        }
        JOINT RightShoulder
        {
          OFFSET -3.70221 9.49509 -0.515508
          CHANNELS 3 Zrotation Xrotation Yrotation
          JOINT RightArm
          {
            OFFSET 0 12.4537 0
            CHANNELS 3 Zrotation Xrotation Yrotation
            JOINT RightArmRoll
            {
              OFFSET 0 6.28686 0
              CHANNELS 3 Zrotation Xrotation Yrotation
              JOINT RightForeArm
              {
                OFFSET 0 18.3114 0
                CHANNELS 3 Zrotation Xrotation Yrotation
                JOINT RightForeArmRoll
                {
                  OFFSET 0 7.05483 0
                  CHANNELS 3 Zrotation Xrotation Yrotation
                  JOINT RightHand
                  {
                    OFFSET 0 14.1575 0
                    CHANNELS 3 Zrotation Xrotation Yrotation
                    End Site
                    {
                      OFFSET 0 0 0
                    }
                  }
                }
              }
            }
          }
        }
        JOINT LeftShoulder
        {
          OFFSET 3.70221 9.49509 -0.515508
          CHANNELS 3 Zrotation Xrotation Yrotation
          JOINT LeftArm
          {
            OFFSET 0 12.4537 0
            CHANNELS 3 Zrotation Xrotation Yrotation
            JOINT LeftArmRoll
            {
              OFFSET 0 6.28686 0
              CHANNELS 3 Zrotation Xrotation Yrotation
              JOINT LeftForeArm
              {
                OFFSET 0 18.3114 0
                CHANNELS 3 Zrotation Xrotation Yrotation
                JOINT LeftForeArmRoll
                {
                  OFFSET 0 7.05482 0
                  CHANNELS 3 Zrotation Xrotation Yrotation
                  JOINT LeftHand
                  {
                    OFFSET 0 14.1575 0
                    CHANNELS 3 Zrotation Xrotation Yrotation
                    End Site
                    {
                      OFFSET 0 0 0
                    }
                  }
                }
              }
            }
          }
        }
      }
    }
  }
  JOINT RightUpLeg
  {
    OFFSET -5.66616 -1.03903 -0.87161
    CHANNELS 3 Zrotation Xrotation Yrotation
    JOINT RightUpLegRoll
    {
      OFFSET 0 16.6005 0
      CHANNELS 3 Zrotation Xrotation Yrotation
      JOINT RightLeg
      {
        OFFSET 0 -20.5572 0
        CHANNELS 3 Zrotation Xrotation Yrotation
        JOINT RightLegRoll
        {
          OFFSET 0 20.6244 0
          CHANNELS 3 Zrotation Xrotation Yrotation
          JOINT RightFoot
          {
            OFFSET 0 17.1664 0
            CHANNELS 3 Zrotation Xrotation Yrotation
            JOINT RightToeBase
            {
              OFFSET 0 14.3502 0
              CHANNELS 3 Zrotation Xrotation Yrotation
              End Site
              {
                OFFSET 0.00608252 6.94971 -0.80106
              }
            }
          }
        }
      }
    }
  }
  JOINT LeftUpLeg
  {
    OFFSET 5.66616 -1.03903 -0.87161
    CHANNELS 3 Zrotation Xrotation Yrotation
    JOINT LeftUpLegRoll
    {
      OFFSET 0 16.6006 0
      CHANNELS 3 Zrotation Xrotation Yrotation
      JOINT LeftLeg
      {
        OFFSET 0 20.5571 0
        CHANNELS 3 Zrotation Xrotation Yrotation
        JOINT LeftLegRoll
        {
          OFFSET 0 20.8151 0
          CHANNELS 3 Zrotation Xrotation Yrotation
          JOINT LeftFoot
          {
            OFFSET 0 16.9757 0
            CHANNELS 3 Zrotation Xrotation Yrotation
            JOINT LeftToeBase
            {
              OFFSET 0 14.3502 0
              CHANNELS 3 Zrotation Xrotation Yrotation
              End Site
              {
                OFFSET -0.0272592 6.94971 -0.801061
              }
            }
          }
        }
      }
    }
  }
}
MOTION
Frames: 12
Frame Time: 0.00208333
52.7013 84.6216 1.64337 -2.66126 3.13145 50.6886 -0.428994 -2.44179 0.590163 -0.837477 -0.885364 1.21818 -0.852138 0.75945 1.23231 -8.30209 -4.18972 12.8831 0.508273 10.5684 11.547 14.7987 -20.3952 -20.6804 60.5148 41.4922 143.598 -1.39554e-005 1.54226e-007 -7.11996e-006 139.692 52.0794 -85.757 6.97996e-007 6.119e-007 -3 8.02889 -4.95143 0.697692 -46.8434 -22.2269 16.0712 -96.5179 26.5483 -9.17482 2.65094e-005 -2.10459e-006 5.49463e-006 -4.90083 12.5138 1.21417 -2.44017e-005 -3.60771e-006 3.00453 -8.02887 -4.95142 -0.697675 175.365 -1.71892 1.62981 180 7.01509e-015 178.767 178.075 18.6427 179.793 -2.2252e-006 3.61463e-006 0.878938 -26.7048 75.3871 28.6431 8.23905 33.8966 -0.613962 -175.075 16.6538 2.07425 4.54188e-006 -4.6773e-006 -0.631529 -1.16257 -10.6276 0.65763 -2.32467e-006 -3.52045e-006 0.0610334 11.8109 66.3229 -18.4385 -8.13663 25.2347 3.48197 
52.698 84.6254 1.63531 -2.68046 3.15836 50.8566 -0.419926 -2.44649 0.595875 -0.819112 -0.894691 1.22875 -0.833896 0.750124 1.24258 -9.06149 -4.16295 12.8156 1.18304 10.4624 11.3393 14.4857 -19.8989 -20.0626 60.71 41.5377 144.53 -1.39554e-005 1.54226e-007 -7.11996e-006 140.807 50.7891 -85.5163 6.97996e-007 6.119e-007 -3 8.02889 -4.95143 0.697692 -47.2443 -22.3672 16.1198 -96.3279 26.7853 -9.16085 2.65094e-005 -2.10459e-006 5.49463e-006 -4.9428 12.5342 1.22232 -2.44017e-005 -3.60771e-006 3.00453 -8.02887 -4.95142 -0.697675 175.328 -1.68111 1.67613 180 7.01509e-015 178.767 178.03 18.7173 179.799 -2.2252e-006 3.61463e-006 0.877191 -26.6478 75.3573 28.5884 8.24593 34.0377 -0.644717 -175.138 16.7041 2.1181 4.54188e-006 -4.6773e-006 -0.631917 -1.16778 -10.6369 0.65478 -2.32467e-006 -3.52045e-006 0.0576129 11.8471 66.3398 -18.4476 -8.13663 25.2347 3.48197 
52.7382 84.6277 1.62804 -2.68946 3.17596 51.0243 -0.410264 -2.44712 0.602389 -0.799563 -0.895849 1.24088 -0.814491 0.748968 1.25439 -9.81624 -4.15014 12.7431 1.85954 10.3695 11.1293 14.1664 -19.4021 -19.4348 60.83 41.7065 145.225 -1.39554e-005 1.54226e-007 -7.11996e-006 142.003 49.6352 -85.5662 6.97996e-007 6.119e-007 -3 8.02889 -4.95143 0.697692 -47.6434 -22.4985 16.1611 -96.1472 27.0251 -9.13938 2.65094e-005 -2.10459e-006 5.49463e-006 -4.98604 12.5612 1.23105 -2.44017e-005 -3.60771e-006 3.00453 -8.02887 -4.95142 -0.697675 175.292 -1.65908 1.72359 180 7.01508e-015 178.767 177.986 18.7884 179.805 -2.2252e-006 3.61463e-006 0.87528 -26.5877 75.3257 28.5302 8.25284 34.1781 -0.674819 -175.201 16.74 2.16075 4.54188e-006 -4.6773e-006 -0.63249 -1.17264 -10.646 0.651959 -2.32467e-006 -3.52045e-006 0.054116 11.885 66.3576 -18.4572 -8.13663 25.2347 3.48197 
52.7815 84.6323 1.63557 -2.68677 3.18244 51.1919 -0.399884 -2.44297 0.609929 -0.778585 -0.887456 1.25502 -0.793682 0.757362 1.26818 -10.5644 -4.15447 12.6644 2.53771 10.2925 10.9164 13.8419 -18.9077 -18.798 60.8602 42.0211 145.65 -1.39554e-005 1.54226e-007 -7.11996e-006 143.262 48.6432 -85.9149 6.97996e-007 6.119e-007 -3 8.02889 -4.95143 0.697692 -48.0398 -22.6195 16.1945 -95.9776 27.2676 -9.10916 2.65094e-005 -2.10459e-006 5.49463e-006 -5.03065 12.5966 1.24046 -2.44017e-005 -3.60771e-006 3.00453 -8.02887 -4.95142 -0.697675 175.256 -1.65618 1.77182 180 7.01508e-015 178.767 177.941 18.8545 179.811 -2.2252e-006 3.61463e-006 0.873157 -26.5231 75.2916 28.4673 8.2598 34.3182 -0.70421 -175.263 16.7594 2.20167 4.54188e-006 -4.6773e-006 -0.633264 -1.17698 -10.6548 0.649189 -2.32467e-006 -3.52045e-006 0.0505325 11.9244 66.3765 -18.4675 -8.13663 25.2347 3.48197 
52.8094 84.6226 1.62722 -2.67086 3.17602 51.3599 -0.388664 -2.43336 0.61872 -0.755935 -0.868131 1.2716 -0.771233 0.776688 1.28439 -11.3041 -4.17912 12.5782 3.21752 10.2338 10.6998 13.5133 -18.4186 -18.1531 60.7919 42.5013 145.765 -1.39554e-005 1.54226e-007 -7.11996e-006 144.572 47.8338 -86.577 6.97996e-007 6.119e-007 -3 8.02889 -4.95143 0.697692 -48.4322 -22.729 16.2192 -95.8208 27.5128 -9.06896 2.65094e-005 -2.10459e-006 5.49463e-006 -5.07673 12.6427 1.25065 -2.44017e-005 -3.60771e-006 3.00453 -8.02887 -4.95142 -0.697675 175.222 -1.67576 1.82046 180 7.01508e-015 178.766 177.897 18.9144 179.817 -2.2252e-006 3.61463e-006 0.870775 -26.4527 75.2543 28.3985 8.26677 34.4585 -0.732833 -175.325 16.7598 2.24035 4.54188e-006 -4.6773e-006 -0.634256 -1.18064 -10.6632 0.646496 -2.32467e-006 -3.52045e-006 0.046852 11.9653 66.3963 -18.4784 -8.13663 25.2347 3.48197 
52.8323 84.626 1.63927 -2.6402 3.15493 51.5286 -0.376483 -2.4176 0.628987 -0.731377 -0.836491 1.29106 -0.746913 0.808328 1.30345 -12.0334 -4.22729 12.4835 3.89899 10.1963 10.4788 13.1819 -17.9375 -17.5009 60.6246 43.1625 145.526 -1.39554e-005 1.54226e-007 -7.11996e-006 145.927 47.222 -87.5773 6.97996e-007 6.119e-007 -3 8.02889 -4.95143 0.697692 -48.8197 -22.8258 16.2345 -95.6787 27.7608 -9.01752 2.65094e-005 -2.10459e-006 5.49463e-006 -5.12439 12.7013 1.26172 -2.44017e-005 -3.60771e-006 3.00453 -8.02887 -4.95142 -0.697675 175.191 -1.72117 1.86914 180 7.01508e-015 178.765 177.853 18.9667 179.823 -2.2252e-006 3.61463e-006 0.868087 -26.3754 75.213 28.3224 8.27375 34.5991 -0.760633 -175.384 16.739 2.27628 4.54188e-006 -4.6773e-006 -0.635484 -1.18344 -10.6712 0.643902 -2.32467e-006 -3.52045e-006 0.0430642 12.0076 66.4172 -18.49 -8.13663 25.2347 3.48197 
52.8678 84.6359 1.63031 -2.59312 3.11943 51.6999 -0.363682 -2.39534 0.640869 -0.705599 -0.791862 1.31373 -0.721413 0.852956 1.3257 -12.7549 -4.29972 12.379 4.58733 10.1816 10.2519 12.8431 -17.4593 -16.8454 60.4074 44.0191 144.82 -1.39554e-005 1.54226e-007 -7.11996e-006 147.426 46.7431 -89.0117 6.97996e-007 6.119e-007 -3 8.02889 -4.95143 0.697692 -49.2036 -22.9073 16.2379 -95.5518 28.0136 -8.95526 2.65094e-005 -2.10459e-006 5.49463e-006 -5.17274 12.7703 1.27343 -2.44017e-005 -3.60771e-006 3.00453 -8.02887 -4.95142 -0.697675 175.162 -1.79331 1.91957 180 7.01508e-015 178.764 177.809 19.0117 179.83 -2.2252e-006 3.61463e-006 0.865036 -26.292 75.1682 28.2399 8.28094 34.741 -0.788623 -175.444 16.6966 2.3106 4.54188e-006 -4.6773e-006 -0.636994 -1.18564 -10.6799 0.641356 -2.32467e-006 -3.52045e-006 0.0390711 12.0529 66.4399 -18.5026 -8.13663 25.2347 3.48197 
52.8757 84.6374 1.61656 -2.53003 3.07194 51.8745 -0.350657 -2.36714 0.654212 -0.679403 -0.735343 1.33934 -0.695532 0.909474 1.3509 -13.473 -4.39331 12.265 5.28668 10.1882 10.0187 12.4922 -16.9769 -16.1885 60.211 45.0509 143.588 -1.39554e-005 1.54226e-007 -7.11996e-006 149.13 46.3022 -90.8957 6.97996e-007 6.119e-007 -3 8.02889 -4.95143 0.697692 -49.5863 -22.9733 16.2279 -95.439 28.2725 -8.88384 2.65094e-005 -2.10459e-006 5.49463e-006 -5.22103 12.8455 1.28549 -2.44017e-005 -3.60771e-006 3.00453 -8.02887 -4.95142 -0.697675 175.131 -1.88893 1.97343 180 7.01507e-015 178.763 177.762 19.0513 179.837 -2.2252e-006 3.61463e-006 0.861632 -26.2046 75.1209 28.1533 8.28848 34.8843 -0.817616 -175.506 16.6348 2.34473 4.54188e-006 -4.6773e-006 -0.6388 -1.18763 -10.6898 0.638789 -2.32467e-006 -3.52045e-006 0.0348129 12.1028 66.4648 -18.5166 -8.13663 25.2347 3.48197 
52.9127 84.6437 1.61591 -2.45249 3.01394 52.0515 -0.337369 -2.33364 0.668794 -0.652724 -0.668218 1.36745 -0.6692 0.976597 1.37859 -14.1883 -4.50548 12.143 5.99541 10.2133 9.78004 12.1297 -16.4904 -15.5275 60.0826 46.2112 141.85 -1.39554e-005 1.54226e-007 -7.11996e-006 150.984 45.8614 -93.148 6.97996e-007 6.119e-007 -3 8.02889 -4.95143 0.697692 -49.9681 -23.0257 16.2062 -95.3389 28.5368 -8.80385 2.65094e-005 -2.10459e-006 5.49463e-006 -5.26955 12.9266 1.29792 -2.44017e-005 -3.60771e-006 3.00453 -8.02887 -4.95142 -0.697675 175.099 -2.00522 2.0303 180 7.01507e-015 178.762 177.714 19.0862 179.844 -2.2252e-006 3.61463e-006 0.857935 -26.1139 75.0715 28.0633 8.29632 35.0284 -0.847251 -175.57 16.5557 2.37858 4.54188e-006 -4.6773e-006 -0.640871 -1.18942 -10.7008 0.636207 -2.32467e-006 -3.52045e-006 0.0303364 12.1566 66.4916 -18.5318 -8.13663 25.2347 3.48197 
52.9374 84.6541 1.64142 -2.36207 2.94689 52.23 -0.32378 -2.29547 0.684394 -0.625498 -0.591772 1.3976 -0.642345 1.05304 1.40831 -14.9012 -4.63363 12.0143 6.71187 10.2543 9.53719 11.7564 -15.9999 -14.8601 60.072 47.4474 139.627 -1.39554e-005 1.54226e-007 -7.11996e-006 152.934 45.385 -95.6901 6.97996e-007 6.119e-007 -3 8.02889 -4.95143 0.697692 -50.3494 -23.0663 16.1743 -95.2503 28.8056 -8.71593 2.65094e-005 -2.10459e-006 5.49463e-006 -5.31858 13.0128 1.31075 -2.44017e-005 -3.60771e-006 3.00453 -8.02887 -4.95142 -0.697675 175.067 -2.13936 2.08979 180 7.01507e-015 178.76 177.664 19.1175 179.852 -2.2252e-006 3.61463e-006 0.854001 -26.0206 75.0203 27.9707 8.30437 35.1727 -0.87716 -175.635 16.4609 2.41203 4.54188e-006 -4.6773e-006 -0.643176 -1.19105 -10.7123 0.633612 -2.32467e-006 -3.52045e-006 0.0256882 12.2136 66.5201 -18.5479 -8.13663 25.2347 3.48197 
52.9689 84.661 1.63205 -2.26038 2.87223 52.409 -0.309852 -2.25329 0.70079 -0.597655 -0.50729 1.42933 -0.614893 1.13752 1.4396 -15.6124 -4.77516 11.8803 7.43435 10.3087 9.29117 11.3726 -15.5054 -14.1838 60.2252 48.7043 136.941 -1.39554e-005 1.54226e-007 -7.11996e-006 154.926 44.8433 -98.4446 6.97996e-007 6.119e-007 -3 8.02889 -4.95143 0.697692 -50.7306 -23.0972 16.1337 -95.1718 29.0783 -8.62067 2.65094e-005 -2.10459e-006 5.49463e-006 -5.36842 13.1037 1.32399 -2.44017e-005 -3.60771e-006 3.00453 -8.02887 -4.95142 -0.697675 175.034 -2.28853 2.15149 180 7.01506e-015 178.759 177.613 19.146 179.86 -2.2252e-006 3.61463e-006 0.849889 -25.9256 74.9676 27.8761 8.31256 35.3166 -0.906975 -175.702 16.3524 2.445 4.54188e-006 -4.6773e-006 -0.645684 -1.19252 -10.7241 0.631008 -2.32467e-006 -3.52045e-006 0.0209153 12.2734 66.5499 -18.5648 -8.13663 25.2347 3.48197 
52.9912 84.6671 1.61423 -2.14902 2.79137 52.5875 -0.295544 -2.20774 0.717763 -0.569123 -0.416056 1.4622 -0.586765 1.22875 1.47202 -16.3225 -4.92748 11.7422 8.16112 10.3738 9.04308 10.9788 -15.0067 -13.4961 60.5773 49.9267 133.823 -1.39554e-005 1.54226e-007 -7.11996e-006 156.904 44.2156 -101.336 6.97996e-007 6.119e-007 -3 8.02889 -4.95143 0.697692 -51.1118 -23.1201 16.0859 -95.1022 29.3539 -8.5187 2.65094e-005 -2.10459e-006 5.49463e-006 -5.41936 13.1986 1.33769 -2.44017e-005 -3.60771e-006 3.00453 -8.02887 -4.95142 -0.697675 175 -2.44991 2.215 180 7.01506e-015 178.757 177.561 19.1724 179.868 -2.2252e-006 3.61463e-006 0.845656 -25.8294 74.914 27.7803 8.32081 35.4595 -0.936324 -175.769 16.232 2.4774 4.54188e-006 -4.6773e-006 -0.648365 -1.19386 -10.7357 0.628399 -2.32467e-006 -3.52045e-006 0.0160642 12.3351 66.5807 -18.5824 -8.13663 25.2347 3.48197 
